<?xml version="1.0" standalone="no"?>
<!DOCTYPE svg PUBLIC "-//W3C//DTD SVG 20010904//EN"
 "http://www.w3.org/TR/2001/REC-SVG-20010904/DTD/svg10.dtd">
<svg version="1.0" xmlns="http://www.w3.org/2000/svg"
 width="140.000000pt" height="140.000000pt" viewBox="0 0 140.000000 140.000000"
 preserveAspectRatio="xMidYMid meet">
<metadata>
Created by potrace 1.11, written by Peter Selinger 2001-2013
</metadata>
<g transform="translate(0.000000,140.000000) scale(0.100000,-0.100000)"
fill="#000000" stroke="none">
<path d="M460 1154 c0 -13 332 -574 340 -574 4 0 74 118 156 263 l149 262 3
-332 c1 -211 6 -333 12 -333 6 0 10 130 10 361 0 198 -4 358 -9 355 -4 -3 -77
-127 -162 -276 -85 -148 -156 -270 -159 -270 -3 0 -77 122 -165 271 -146 248
-175 294 -175 273z"/>
<path d="M296 754 c-43 -168 -76 -308 -72 -311 8 -8 8 -9 87 302 39 154 72
281 73 282 1 2 71 -114 155 -257 84 -143 158 -260 163 -260 10 0 11 -2 -180
320 -73 124 -136 226 -140 228 -4 1 -42 -136 -86 -304z"/>
<path d="M221 314 c-12 -32 -19 -59 -16 -62 2 -3 7 3 11 12 7 19 60 22 66 4 5
-14 26 -18 93 -18 28 0 65 0 84 0 19 -1 38 5 42 12 7 10 9 10 9 1 0 -8 13 -13
30 -13 17 0 30 4 30 9 0 4 -11 6 -24 4 -15 -3 -25 1 -29 11 -5 12 0 16 23 16
33 0 40 19 16 39 -11 9 -20 10 -35 1 -19 -9 -21 -8 -21 15 0 14 -4 25 -10 25
-5 0 -10 -9 -10 -20 0 -12 -5 -17 -13 -14 -8 3 -20 -2 -27 -11 -10 -12 -15
-13 -21 -4 -4 6 -28 13 -54 14 -36 1 -50 -3 -58 -17 -17 -26 -24 -23 -37 17
-6 19 -15 35 -19 35 -5 0 -18 -25 -30 -56z m42 6 c4 -15 0 -20 -13 -20 -13 0
-17 5 -13 20 3 11 9 20 13 20 4 0 10 -9 13 -20z m147 -10 c0 -5 -10 -12 -22
-16 -13 -4 -28 -14 -34 -22 -16 -22 -44 -8 -44 22 0 23 3 25 50 24 28 0 50 -4
50 -8z m70 -20 c0 -23 -4 -30 -20 -30 -16 0 -20 7 -20 30 0 23 4 30 20 30 16
0 20 -7 20 -30z m80 20 c0 -5 -12 -10 -26 -10 -14 0 -23 4 -19 10 3 6 15 10
26 10 10 0 19 -4 19 -10z m-150 -35 c0 -8 -9 -15 -20 -15 -25 0 -26 17 -2 23
9 3 18 5 20 6 1 0 2 -6 2 -14z"/>
<path d="M810 310 c0 -71 16 -80 22 -12 5 51 1 72 -13 72 -5 0 -9 -27 -9 -60z"/>
<path d="M895 329 l-19 -41 -18 24 c-20 27 -23 20 -6 -17 15 -34 25 -32 46 12
l17 36 6 -49 6 -49 1 63 c1 34 -2 62 -6 62 -5 0 -17 -18 -27 -41z"/>
<path d="M582 290 c1 -44 1 -44 5 -7 6 50 35 48 44 -3 l6 -35 2 38 c1 51 31
53 31 2 0 -19 5 -35 10 -35 16 0 12 66 -5 80 -12 10 -18 10 -29 1 -9 -8 -16
-8 -20 -2 -4 5 -15 9 -26 8 -17 -1 -20 -8 -18 -47z"/>
<path d="M701 296 c0 -27 2 -46 6 -43 3 4 11 3 18 -3 6 -5 21 -7 33 -3 18 4
22 13 22 43 0 39 -16 55 -45 44 -24 -10 -17 -22 10 -16 14 2 25 0 25 -6 0 -5
-11 -13 -25 -16 -14 -4 -26 -12 -26 -19 -1 -6 -5 6 -9 28 l-7 40 -2 -49z m69
-21 c0 -8 -9 -15 -20 -15 -22 0 -27 15 -7 23 21 9 27 7 27 -8z"/>
<path d="M953 333 c-23 -9 -14 -20 12 -15 14 2 25 0 25 -7 0 -6 -11 -13 -25
-17 -15 -4 -25 -13 -25 -24 0 -22 13 -28 51 -22 23 3 28 10 31 36 2 23 8 31
23 31 15 0 22 -9 26 -35 4 -19 7 -29 8 -22 1 11 4 10 15 -1 9 -8 26 -12 40
-10 23 5 26 10 26 44 0 22 -4 39 -10 39 -5 0 -10 -16 -10 -35 0 -28 -4 -35
-20 -35 -16 0 -20 7 -20 36 0 27 -4 35 -14 31 -8 -3 -17 -3 -21 1 -12 13 -55
8 -55 -6 0 -10 -3 -10 -16 2 -16 17 -21 18 -41 9z m37 -58 c0 -8 -9 -15 -20
-15 -25 0 -26 17 -2 23 9 3 18 5 20 6 1 0 2 -6 2 -14z"/>
</g>
</svg>
